<?xml version="1.0" encoding="UTF-8" standalone="no"?>
<svg xmlns="http://www.w3.org/2000/svg" xmlns:xlink="http://www.w3.org/1999/xlink" class="card" face="2C" height="3.5in" preserveAspectRatio="none" viewBox="-120 -168 240 336" width="2.5in"><defs><symbol id="SC2" viewBox="-600 -600 1200 1200" preserveAspectRatio="xMinYMid"><path d="M30 150C35 385 85 400 130 500L-130 500C-85 400 -35 385 -30 150A10 10 0 0 0 -50 150A210 210 0 1 1 -124 -51A10 10 0 0 0 -110 -65A230 230 0 1 1 110 -65A10 10 0 0 0 124 -51A210 210 0 1 1 50 150A10 10 0 0 0 30 150Z" fill="#000e57"></path></symbol><symbol id="VC2" viewBox="-500 -500 1000 1000" preserveAspectRatio="xMinYMid"><path d="M-225 -225C-245 -265 -200 -460 0 -460C 200 -460 225 -325 225 -225C225 -25 -225 160 -225 460L225 460L225 300" stroke="#000e57" stroke-width="80" stroke-linecap="square" stroke-miterlimit="1.5" fill="none"></path></symbol></defs><rect width="239" height="335" x="-119.5" y="-167.5" rx="12" ry="12" fill="white" stroke="black"></rect><use xlink:href="#VC2" height="50" width="50" x="-118" y="-156"></use><use xlink:href="#SC2" height="41.827" width="41.827" x="-113.913" y="-101"></use><use xlink:href="#SC2" height="50" width="50" x="-25" y="-121.897"></use><g transform="rotate(180)"><use xlink:href="#VC2" height="50" width="50" x="-118" y="-156"></use><use xlink:href="#SC2" height="41.827" width="41.827" x="-113.913" y="-101"></use><use xlink:href="#SC2" height="50" width="50" x="-25" y="-121.897"></use></g></svg>