<?xml version="1.0" encoding="UTF-8" standalone="no"?>
<svg xmlns="http://www.w3.org/2000/svg" xmlns:xlink="http://www.w3.org/1999/xlink" class="card" face="9D" height="3.5in" preserveAspectRatio="none" viewBox="-120 -168 240 336" width="2.5in"><defs><symbol id="SD9" viewBox="-600 -600 1200 1200" preserveAspectRatio="xMinYMid"><path d="M-400 0C-350 0 0 -450 0 -500C0 -450 350 0 400 0C350 0 0 450 0 500C0 450 -350 0 -400 0Z" fill="#d60000"></path></symbol><symbol id="VD9" viewBox="-500 -500 1000 1000" preserveAspectRatio="xMinYMid"><path d="M250 -100A250 250 0 0 1 -250 -100L-250 -210A250 250 0 0 1 250 -210L250 210A250 250 0 0 1 0 460C-150 460 -180 400 -200 375" stroke="#d60000" stroke-width="80" stroke-linecap="square" stroke-miterlimit="1.5" fill="none"></path></symbol></defs><rect width="239" height="335" x="-119.5" y="-167.5" rx="12" ry="12" fill="white" stroke="black"></rect><use xlink:href="#VD9" height="50" width="50" x="-118" y="-156"></use><use xlink:href="#SD9" height="41.827" width="41.827" x="-113.913" y="-101"></use><use xlink:href="#SD9" height="50" width="50" x="-73.834" y="-121.834"></use><use xlink:href="#SD9" height="50" width="50" x="23.834" y="-121.834"></use><use xlink:href="#SD9" height="50" width="50" x="-73.834" y="-57.278"></use><use xlink:href="#SD9" height="50" width="50" x="23.834" y="-57.278"></use><use xlink:href="#SD9" height="50" width="50" x="-25" y="-25"></use><g transform="rotate(180)"><use xlink:href="#VD9" height="50" width="50" x="-118" y="-156"></use><use xlink:href="#SD9" height="41.827" width="41.827" x="-113.913" y="-101"></use><use xlink:href="#SD9" height="50" width="50" x="-73.834" y="-121.834"></use><use xlink:href="#SD9" height="50" width="50" x="23.834" y="-121.834"></use><use xlink:href="#SD9" height="50" width="50" x="-73.834" y="-57.278"></use><use xlink:href="#SD9" height="50" width="50" x="23.834" y="-57.278"></use></g></svg>