<?xml version="1.0" encoding="UTF-8" standalone="no"?>
<svg xmlns="http://www.w3.org/2000/svg" xmlns:xlink="http://www.w3.org/1999/xlink" class="card" face="JH" height="3.5in" preserveAspectRatio="none" viewBox="-120 -168 240 336" width="2.5in"><defs><symbol id="SHJ" viewBox="-600 -600 1200 1200" preserveAspectRatio="xMinYMid"><path d="M0 -300C0 -400 100 -500 200 -500C300 -500 400 -400 400 -250C400 0 0 400 0 500C0 400 -400 0 -400 -250C-400 -400 -300 -500 -200 -500C-100 -500 0 -400 -0 -300Z" fill="#d60000"></path></symbol><symbol id="VHJ" viewBox="-500 -500 1000 1000" preserveAspectRatio="xMinYMid"><path d="M50 -460L250 -460M150 -460L150 250A100 100 0 0 1 -250 250L-250 220" stroke="#d60000" stroke-width="80" stroke-linecap="square" stroke-miterlimit="1.5" fill="none"></path></symbol></defs><rect width="239" height="335" x="-119.5" y="-167.5" rx="12" ry="12" fill="white" stroke="black"></rect><use xlink:href="#VHJ" height="136" width="136" x="-68" y="-68"></use><use xlink:href="#VHJ" height="50" width="50" x="-118" y="-156"></use><use xlink:href="#SHJ" height="41.827" width="41.827" x="-113.913" y="-101"></use><g transform="rotate(180)"><use xlink:href="#VHJ" height="50" width="50" x="-118" y="-156"></use><use xlink:href="#SHJ" height="41.827" width="41.827" x="-113.913" y="-101"></use></g></svg>