<svg width="20" height="22" viewBox="0 0 20 22" fill="none" xmlns="http://www.w3.org/2000/svg">
<g filter="url(#filter0_d_865_25643)">
<path d="M10.0547 3.33338C8.56768 3.33338 7.11403 3.77325 5.87759 4.59736C4.64115 5.42147 3.67747 6.59281 3.1084 7.96325C2.53933 9.3337 2.39044 10.8417 2.68054 12.2966C2.97065 13.7514 3.68674 15.0878 4.73824 16.1367C5.78974 17.1856 7.12944 17.8999 8.58792 18.1893C10.0464 18.4787 11.5581 18.3301 12.932 17.7625C14.3059 17.1948 15.4801 16.2335 16.3063 15.0002C17.1324 13.7668 17.5734 12.3167 17.5734 10.8334C17.5734 8.84425 16.7812 6.9366 15.3712 5.53008C13.9612 4.12355 12.0488 3.33338 10.0547 3.33338ZM10.0547 16.6667C8.89814 16.6667 7.76752 16.3246 6.80584 15.6836C5.84417 15.0426 5.09464 14.1316 4.65203 13.0657C4.20942 11.9998 4.09361 10.8269 4.31925 9.69535C4.54489 8.5638 5.10185 7.5244 5.91968 6.70859C6.73752 5.89278 7.7795 5.33721 8.91388 5.11213C10.0482 4.88705 11.2241 5.00257 12.2926 5.44408C13.3612 5.88559 14.2745 6.63327 14.917 7.59255C15.5596 8.55184 15.9026 9.67965 15.9026 10.8334C15.9026 12.3805 15.2865 13.8642 14.1898 14.9582C13.0931 16.0521 11.6057 16.6667 10.0547 16.6667ZM12.9369 3.19171C12.8345 3.1369 12.7446 3.06137 12.6731 2.96995C12.6016 2.87853 12.55 2.77324 12.5216 2.66079C12.4933 2.54835 12.4887 2.43124 12.5083 2.31695C12.5279 2.20265 12.5712 2.0937 12.6354 1.99704C12.6996 1.90038 12.7833 1.81816 12.8812 1.75562C12.9791 1.69308 13.089 1.65161 13.2038 1.63385C13.3187 1.6161 13.436 1.62245 13.5483 1.6525C13.6606 1.68255 13.7653 1.73564 13.8558 1.80838L16.3621 3.47504C16.5102 3.57434 16.6226 3.71836 16.6827 3.886C16.7428 4.05364 16.7476 4.23608 16.6962 4.40659C16.6448 4.5771 16.54 4.72672 16.3972 4.83351C16.2544 4.94031 16.0811 4.99867 15.9026 5.00005C15.7383 5.00192 15.5776 4.95237 15.4431 4.85838L12.9369 3.19171ZM3.5135 4.62505C3.39259 4.44132 3.34933 4.2174 3.39314 4.00201C3.43695 3.78663 3.56428 3.59723 3.74741 3.47504L6.25363 1.80838C6.34416 1.73564 6.4489 1.68255 6.56117 1.6525C6.67344 1.62245 6.79076 1.6161 6.90562 1.63385C7.02049 1.65161 7.13038 1.69308 7.22826 1.75562C7.32615 1.81816 7.40987 1.90038 7.47408 1.99704C7.53828 2.0937 7.58156 2.20265 7.60115 2.31695C7.62074 2.43124 7.61619 2.54835 7.58782 2.66079C7.55944 2.77324 7.50785 2.87853 7.43635 2.96995C7.36485 3.06137 7.27501 3.1369 7.17258 3.19171L4.66636 4.85838C4.53183 4.95237 4.37113 5.00192 4.20689 5.00005C4.06929 4.99933 3.934 4.96473 3.81304 4.89931C3.69207 4.83389 3.58918 4.73968 3.5135 4.62505ZM12.3187 11.9084C12.397 11.9858 12.4591 12.078 12.5015 12.1796C12.544 12.2811 12.5658 12.39 12.5658 12.5C12.5658 12.6101 12.544 12.719 12.5015 12.8205C12.4591 12.9221 12.397 13.0142 12.3187 13.0917C12.241 13.1698 12.1486 13.2318 12.0468 13.2741C11.945 13.3164 11.8358 13.3382 11.7255 13.3382C11.6153 13.3382 11.5061 13.3164 11.4043 13.2741C11.3025 13.2318 11.2101 13.1698 11.1324 13.0917L9.46159 11.425C9.38417 11.3472 9.32291 11.2548 9.28134 11.1533C9.23976 11.0518 9.21869 10.9431 9.21933 10.8334V7.50005C9.21933 7.27903 9.30734 7.06707 9.46401 6.91079C9.62068 6.75451 9.83317 6.66671 10.0547 6.66671C10.2763 6.66671 10.4888 6.75451 10.6455 6.91079C10.8021 7.06707 10.8901 7.27903 10.8901 7.50005V10.4917L12.3187 11.9084Z" fill="white"/>
</g>
<defs>
<filter id="filter0_d_865_25643" x="0.536072" y="0.624023" width="19.0373" height="20.7094" filterUnits="userSpaceOnUse" color-interpolation-filters="sRGB">
<feFlood flood-opacity="0" result="BackgroundImageFix"/>
<feColorMatrix in="SourceAlpha" type="matrix" values="0 0 0 0 0 0 0 0 0 0 0 0 0 0 0 0 0 0 127 0" result="hardAlpha"/>
<feOffset dy="1"/>
<feGaussianBlur stdDeviation="1"/>
<feComposite in2="hardAlpha" operator="out"/>
<feColorMatrix type="matrix" values="0 0 0 0 0 0 0 0 0 0 0 0 0 0 0 0 0 0 0.48 0"/>
<feBlend mode="normal" in2="BackgroundImageFix" result="effect1_dropShadow_865_25643"/>
<feBlend mode="normal" in="SourceGraphic" in2="effect1_dropShadow_865_25643" result="shape"/>
</filter>
</defs>
</svg>
